<mxfile host="app.diagrams.net" modified="2022-11-23T03:07:39.551Z" agent="5.0 (Windows NT 10.0; Win64; x64) AppleWebKit/537.36 (KHTML, like Gecko) Chrome/107.0.0.0 Safari/537.36" etag="uRK_C6RZIgV8kTVhlv30" version="20.5.3" type="github">
  <diagram id="6x6XKA2omLFS0tVf6bol" name="第 1 页">
    <mxGraphModel dx="782" dy="436" grid="1" gridSize="10" guides="1" tooltips="1" connect="1" arrows="1" fold="1" page="1" pageScale="1" pageWidth="827" pageHeight="1169" math="0" shadow="0">
      <root>
        <mxCell id="0" />
        <mxCell id="1" parent="0" />
        <mxCell id="qV9KdJhE_TU22LBdMMZh-1" value="Java语言无法直接解释类似“1+2+3-4+1”这样的字符串，&lt;br&gt;定义一套文法规则来实现对这些语句的解释，即设计一个自定义的语言&lt;br&gt;基于现有的编程语言-&amp;gt;面向编程语言-&amp;gt;解释器模式" style="text;html=1;strokeColor=none;fillColor=none;align=center;verticalAlign=middle;whiteSpace=wrap;rounded=0;" vertex="1" parent="1">
          <mxGeometry x="30" y="20" width="270" height="120" as="geometry" />
        </mxCell>
        <mxCell id="qV9KdJhE_TU22LBdMMZh-2" value="解释器模式的定义：&lt;br&gt;给定一个语言，定义它的文法的一种表示，并定义一个解释器，这个解释器使用改表示来解释语言中的句子" style="text;html=1;strokeColor=none;fillColor=none;align=center;verticalAlign=middle;whiteSpace=wrap;rounded=0;" vertex="1" parent="1">
          <mxGeometry x="50" y="140" width="180" height="90" as="geometry" />
        </mxCell>
        <mxCell id="qV9KdJhE_TU22LBdMMZh-17" style="edgeStyle=orthogonalEdgeStyle;rounded=0;orthogonalLoop=1;jettySize=auto;html=1;startArrow=none;startFill=0;endArrow=open;endFill=0;" edge="1" parent="1" source="qV9KdJhE_TU22LBdMMZh-8" target="qV9KdJhE_TU22LBdMMZh-10">
          <mxGeometry relative="1" as="geometry" />
        </mxCell>
        <mxCell id="qV9KdJhE_TU22LBdMMZh-18" style="edgeStyle=orthogonalEdgeStyle;rounded=0;orthogonalLoop=1;jettySize=auto;html=1;entryX=-0.017;entryY=0.348;entryDx=0;entryDy=0;entryPerimeter=0;startArrow=none;startFill=0;endArrow=open;endFill=0;" edge="1" parent="1" source="qV9KdJhE_TU22LBdMMZh-8" target="qV9KdJhE_TU22LBdMMZh-9">
          <mxGeometry relative="1" as="geometry">
            <Array as="points">
              <mxPoint x="130" y="291" />
            </Array>
          </mxGeometry>
        </mxCell>
        <mxCell id="qV9KdJhE_TU22LBdMMZh-8" value="&lt;p style=&quot;margin:0px;margin-top:4px;text-align:center;&quot;&gt;&lt;b&gt;client&lt;/b&gt;&lt;/p&gt;&lt;hr size=&quot;1&quot;&gt;&lt;div style=&quot;height:2px;&quot;&gt;&lt;/div&gt;&lt;hr size=&quot;1&quot;&gt;&lt;div style=&quot;height:2px;&quot;&gt;&lt;br&gt;&lt;/div&gt;" style="verticalAlign=top;align=left;overflow=fill;fontSize=12;fontFamily=Helvetica;html=1;" vertex="1" parent="1">
          <mxGeometry x="60" y="330" width="140" height="60" as="geometry" />
        </mxCell>
        <mxCell id="qV9KdJhE_TU22LBdMMZh-19" value="" style="edgeStyle=orthogonalEdgeStyle;rounded=0;orthogonalLoop=1;jettySize=auto;html=1;startArrow=open;startFill=0;endArrow=none;endFill=0;" edge="1" parent="1" source="qV9KdJhE_TU22LBdMMZh-9" target="qV9KdJhE_TU22LBdMMZh-10">
          <mxGeometry relative="1" as="geometry" />
        </mxCell>
        <mxCell id="qV9KdJhE_TU22LBdMMZh-9" value="&lt;p style=&quot;margin:0px;margin-top:4px;text-align:center;&quot;&gt;&lt;b&gt;Context&lt;/b&gt;&lt;/p&gt;&lt;hr size=&quot;1&quot;&gt;&lt;p style=&quot;margin:0px;margin-left:4px;&quot;&gt;&lt;br&gt;&lt;/p&gt;&lt;hr size=&quot;1&quot;&gt;&lt;p style=&quot;margin:0px;margin-left:4px;&quot;&gt;&lt;br&gt;&lt;/p&gt;" style="verticalAlign=top;align=left;overflow=fill;fontSize=12;fontFamily=Helvetica;html=1;" vertex="1" parent="1">
          <mxGeometry x="320" y="260" width="160" height="90" as="geometry" />
        </mxCell>
        <mxCell id="qV9KdJhE_TU22LBdMMZh-14" style="edgeStyle=orthogonalEdgeStyle;rounded=0;orthogonalLoop=1;jettySize=auto;html=1;entryX=0.704;entryY=-0.037;entryDx=0;entryDy=0;entryPerimeter=0;startArrow=openThin;startFill=0;endArrow=diamondThin;endFill=0;" edge="1" parent="1" source="qV9KdJhE_TU22LBdMMZh-10" target="qV9KdJhE_TU22LBdMMZh-13">
          <mxGeometry relative="1" as="geometry">
            <Array as="points">
              <mxPoint x="563" y="435" />
            </Array>
          </mxGeometry>
        </mxCell>
        <mxCell id="qV9KdJhE_TU22LBdMMZh-10" value="&lt;p style=&quot;margin:0px;margin-top:4px;text-align:center;&quot;&gt;&lt;b&gt;AbstractExpression&lt;/b&gt;&lt;/p&gt;&lt;hr size=&quot;1&quot;&gt;&lt;p style=&quot;margin:0px;margin-left:4px;&quot;&gt;&lt;br&gt;&lt;/p&gt;&lt;hr size=&quot;1&quot;&gt;&lt;p style=&quot;margin:0px;margin-left:4px;&quot;&gt;+interpret():void&lt;/p&gt;" style="verticalAlign=top;align=left;overflow=fill;fontSize=12;fontFamily=Helvetica;html=1;" vertex="1" parent="1">
          <mxGeometry x="320" y="390" width="160" height="90" as="geometry" />
        </mxCell>
        <mxCell id="qV9KdJhE_TU22LBdMMZh-16" style="edgeStyle=orthogonalEdgeStyle;rounded=0;orthogonalLoop=1;jettySize=auto;html=1;entryX=0.25;entryY=1;entryDx=0;entryDy=0;startArrow=none;startFill=0;endArrow=block;endFill=0;" edge="1" parent="1" source="qV9KdJhE_TU22LBdMMZh-12" target="qV9KdJhE_TU22LBdMMZh-10">
          <mxGeometry relative="1" as="geometry" />
        </mxCell>
        <mxCell id="qV9KdJhE_TU22LBdMMZh-12" value="&lt;p style=&quot;margin:0px;margin-top:4px;text-align:center;&quot;&gt;&lt;b&gt;TerminalExpression&lt;/b&gt;&lt;/p&gt;&lt;hr size=&quot;1&quot;&gt;&lt;p style=&quot;margin:0px;margin-left:4px;&quot;&gt;&lt;br&gt;&lt;/p&gt;&lt;hr size=&quot;1&quot;&gt;&lt;p style=&quot;margin:0px;margin-left:4px;&quot;&gt;+ interpret():void&lt;/p&gt;" style="verticalAlign=top;align=left;overflow=fill;fontSize=12;fontFamily=Helvetica;html=1;" vertex="1" parent="1">
          <mxGeometry x="170" y="550" width="160" height="90" as="geometry" />
        </mxCell>
        <mxCell id="qV9KdJhE_TU22LBdMMZh-15" style="edgeStyle=orthogonalEdgeStyle;rounded=0;orthogonalLoop=1;jettySize=auto;html=1;exitX=0.25;exitY=0;exitDx=0;exitDy=0;entryX=0.5;entryY=1;entryDx=0;entryDy=0;startArrow=none;startFill=0;endArrow=block;endFill=0;" edge="1" parent="1" source="qV9KdJhE_TU22LBdMMZh-13" target="qV9KdJhE_TU22LBdMMZh-10">
          <mxGeometry relative="1" as="geometry" />
        </mxCell>
        <mxCell id="qV9KdJhE_TU22LBdMMZh-13" value="&lt;p style=&quot;margin:0px;margin-top:4px;text-align:center;&quot;&gt;&lt;b&gt;NonterminalExpression&lt;/b&gt;&lt;/p&gt;&lt;hr size=&quot;1&quot;&gt;&lt;p style=&quot;margin:0px;margin-left:4px;&quot;&gt;&lt;br&gt;&lt;/p&gt;&lt;hr size=&quot;1&quot;&gt;&lt;p style=&quot;margin:0px;margin-left:4px;&quot;&gt;+ interpret(): void&lt;/p&gt;" style="verticalAlign=top;align=left;overflow=fill;fontSize=12;fontFamily=Helvetica;html=1;" vertex="1" parent="1">
          <mxGeometry x="450" y="550" width="160" height="90" as="geometry" />
        </mxCell>
        <mxCell id="qV9KdJhE_TU22LBdMMZh-21" value="终结符表达式类" style="text;html=1;strokeColor=none;fillColor=none;align=center;verticalAlign=middle;whiteSpace=wrap;rounded=0;" vertex="1" parent="1">
          <mxGeometry x="170" y="520" width="60" height="30" as="geometry" />
        </mxCell>
        <mxCell id="qV9KdJhE_TU22LBdMMZh-22" value="非终结符表达式类" style="text;html=1;strokeColor=none;fillColor=none;align=center;verticalAlign=middle;whiteSpace=wrap;rounded=0;" vertex="1" parent="1">
          <mxGeometry x="620" y="530" width="60" height="30" as="geometry" />
        </mxCell>
        <mxCell id="qV9KdJhE_TU22LBdMMZh-23" value="抽象表达式" style="text;html=1;strokeColor=none;fillColor=none;align=center;verticalAlign=middle;whiteSpace=wrap;rounded=0;" vertex="1" parent="1">
          <mxGeometry x="510" y="380" width="60" height="30" as="geometry" />
        </mxCell>
        <mxCell id="qV9KdJhE_TU22LBdMMZh-24" value="环境类" style="text;html=1;strokeColor=none;fillColor=none;align=center;verticalAlign=middle;whiteSpace=wrap;rounded=0;" vertex="1" parent="1">
          <mxGeometry x="500" y="270" width="60" height="30" as="geometry" />
        </mxCell>
      </root>
    </mxGraphModel>
  </diagram>
</mxfile>
